<?xml version="1.0" encoding="utf-8"?>
<!-- Generator: Adobe Illustrator 24.0.2, SVG Export Plug-In . SVG Version: 6.00 Build 0)  -->
<svg version="1.1" id="Calque_1" xmlns="http://www.w3.org/2000/svg" xmlns:xlink="http://www.w3.org/1999/xlink" x="0px" y="0px"
	 viewBox="0 0 150 150" style="enable-background:new 0 0 150 150;" xml:space="preserve">
<style type="text/css">
	.st0{fill:none;stroke:#FFFFFF;stroke-miterlimit:10;}
	.st1{fill:none;}
	.st2{font-family:'Rockwell-ExtraBold';}
	.st3{font-size:21.6771px;}
</style>
<path class="st0" d="M19.63,148.32c-2.96,0-5.66,0-8.54,0c-0.2-1.41-0.38-2.73-0.58-4.1c-0.34-0.15-0.66-0.38-1-0.41
	C1.44,143.26,1,142.81,1,134.79c0-33.06,0-66.13,0-99.19c0-5.87,1.31-7.17,7.18-7.17c15.8,0,31.61-0.07,47.41,0.06
	c2.69,0.02,3.88-0.89,4.81-3.38C66.45,9.04,81.81,0.67,96.5,2.02c18.37,1.68,31.26,14.36,33.08,32.01
	c0.76,7.38,0.58,14.88,0.62,22.32c0.01,2.54,0.77,3.71,3.37,3.52c1.6-0.11,3.21-0.01,4.81-0.02c2.1-0.01,4.4,0.36,4.26-3.04
	c-0.02-0.47,1.79-1.58,2.05-1.4c0.84,0.6,1.86,1.64,1.9,2.56c0.2,4.09-0.06,8.21,0.18,12.3c0.08,1.44,1.14,2.81,1.7,4.23
	c0.25,0.65,0.5,1.36,0.5,2.04c0.03,9.45,0.06,18.89-0.04,28.34c-0.01,0.87-0.89,1.7-1.26,2.59c-0.39,0.93-0.91,1.91-0.94,2.88
	c-0.11,3.85,0.11,7.72-0.12,11.55c-0.09,1.48-1.08,2.89-1.67,4.34c-1.12-1.09-2.25-2.19-4.13-4.02c-4.9,0-11.04,0-17.35,0
	c-0.16,0.43-0.23,0.93-0.49,1.28c-0.71,0.95-1.51,1.84-2.27,2.75c-0.66-1-1.84-1.97-1.9-3c-0.22-4.21,0.01-8.45-0.17-12.67
	c-0.04-1.06-0.99-2.07-1.53-3.11c-0.47,1.07-1.34,2.13-1.36,3.2c-0.11,8.7-0.06,17.4-0.06,26.1c0,6.01-0.72,6.72-6.82,6.96
	c-0.72,0.03-1.44,0.17-2.3,0.28c-0.19,1.41-0.36,2.73-0.56,4.23c-2.82,0-5.6,0-8.62,0c-0.11-1.45-0.22-2.76-0.34-4.29
	c-25.67,0-51.15,0-76.79,0C20.04,145.52,19.83,146.92,19.63,148.32z M49.38,103.45c0-5.56,0.09-10.63-0.04-15.69
	c-0.06-2.41,0.75-3.33,3.2-3.23c3.94,0.16,7.9,0.16,11.84,0c2.48-0.1,3.27,0.94,3.18,3.28c-0.11,2.85-0.04,5.71-0.02,8.57
	c0.06,8.2-0.67,6.94,6.83,7.03c4.76,0.06,9.52,0.01,14.54,0.01c-0.16,1.91-0.26,3.07-0.36,4.18c-1.66,0.28-2.94,0.49-4.26,0.71
	c0,1.56,0,2.87,0,4.32c7.53,0,14.83,0,22.48,0c0-15.18,0.03-30.07-0.09-44.95c-0.01-0.65-1.3-1.84-2.01-1.85
	c-11.33-0.12-22.67-0.08-34-0.08c0.18,0.3,0.36,0.59,0.54,0.89c-1.17,1.29-2.29,3.62-3.52,3.69c-3.77,0.19-7.33,0.12-8.47,3.35
	c-2.74-1.18-4.95-2.81-7.24-2.94c-3.33-0.19-5.62-0.7-5.34-4.73c-10.52,0-20.81,0-31.32,0c0.29,3.57-1.68,4.82-4.59,4.92
	c0,21.24,0,42.29,0,63.31c7.52,0,14.74,0,22.04,0c0-8.81,0-17.34,0-26c-1.48-0.21-2.78-0.4-4.2-0.61c0-1.31,0-2.49,0-4.17
	C35.48,103.45,42.21,103.45,49.38,103.45z M61.05,28.38c1.99,0,3.33,0,4.66,0c14.44,0,28.87-0.01,43.31,0
	c5.78,0,6.72,0.92,6.71,6.63c-0.01,11.68-0.08,23.35,0.01,35.03c0.01,1.36,0.88,2.71,1.36,4.06c0.53-1.4,1.45-2.78,1.53-4.21
	c0.21-4.09-0.01-8.2,0.18-12.29c0.04-0.79,1.12-2.08,1.82-2.15c0.7-0.07,2.14,1.08,2.17,1.73c0.1,2.55,1.56,2.71,3.48,2.64
	c2.39-0.09,2.29-1.73,2.28-3.41c-0.01-6.34,0.04-12.67-0.01-19.01c-0.12-13.88-8.98-26.42-22.37-31.73
	c-12.43-4.94-27.63-1.65-36.86,8.12C65.58,17.77,62.47,22.18,61.05,28.38z M106.8,55.26c0-5-0.15-9.57,0.05-14.13
	c0.13-2.89-0.72-3.88-3.72-3.84c-12.09,0.16-24.18,0.01-36.27,0.08c-8.69,0.06-7.54-1.37-7.62,7.69c-0.05,5.71,0,5.87,5.87,5.67
	c3.31-0.11,5.66,0.42,5.42,4.53C82.58,55.26,94.38,55.26,106.8,55.26z M46.18,55.31c-0.1-0.38-0.21-0.76-0.31-1.14
	c1.36-1.13,2.63-3.06,4.11-3.24c8.06-0.96,8.08-0.81,8.02-8.97c-0.01-0.75,0.25-1.68-0.1-2.19c-0.64-0.94-1.65-2.3-2.51-2.3
	C41.19,37.32,27,37.33,12.8,37.43c-0.78,0.01-2.2,1.01-2.23,1.61c-0.21,3.8-0.1,7.61-0.1,11.68c4.08-0.71,4.7,1.93,5.21,4.59
	C25.97,55.31,36.08,55.31,46.18,55.31z M37.85,135.16c1.96-1.02,3.6-1.47,4.67-2.51c5.67-5.52,11.31-11.1,16.73-16.87
	c2.06-2.19,4.18-3.05,7.13-2.9c4.26,0.23,8.55,0.06,12.91,0.06c0-1.88,0-3.28,0-4.67c-13.98,0-27.71,0-41.44,0
	C37.85,117.13,37.85,125.65,37.85,135.16z M70.47,63.3c12.18,0,24.06,0,35.9,0c0.93-5.7,0.93-5.7-4.42-5.71c-8.14,0-16.29,0-24.43,0
	c-2.3,0-4.61,0-7.06,0C70.47,59.72,70.47,61.32,70.47,63.3z M46.74,57.6c-9.85,0-19.28,0.06-28.72-0.04
	c-2.31-0.03-2.95,0.85-2.95,3.04c0,2.2,0.67,3.05,2.97,3.02c8.35-0.11,16.71-0.04,25.07-0.05c1.18,0,2.36-0.12,3.64-0.2
	C46.74,61.38,46.74,59.8,46.74,57.6z"/>
<path class="st0" d="M122.32,58.96"/>
<rect x="67.65" y="120.9" class="st1" width="40.74" height="28.23"/>
<text transform="matrix(1 0 0 1 67.6455 135.6172)" class="st0 st2 st3">FR</text>
</svg>
